<?xml version="1.0" standalone="no"?>
<!DOCTYPE svg PUBLIC "-//W3C//DTD SVG 20010904//EN"
 "http://www.w3.org/TR/2001/REC-SVG-20010904/DTD/svg10.dtd">
<svg version="1.0" xmlns="http://www.w3.org/2000/svg"
 width="500.000000pt" height="500.000000pt" viewBox="0 0 500.000000 500.000000"
 preserveAspectRatio="xMidYMid meet">
<metadata>
Created by potrace 1.11, written by Peter Selinger 2001-2013
</metadata>
<g transform="translate(0.000000,500.000000) scale(0.100000,-0.100000)"
fill="#000000" stroke="none">
<path d="M2338 4696 c-1 -2 -34 -6 -73 -10 -76 -6 -93 -9 -207 -31 -499 -98
-971 -392 -1295 -805 -176 -225 -350 -583 -397 -816 -3 -11 -11 -50 -20 -89
-32 -148 -41 -243 -41 -455 1 -176 6 -248 29 -375 107 -600 457 -1126 971
-1460 242 -157 475 -252 762 -310 161 -33 236 -40 433 -40 224 0 306 9 532 60
211 47 488 170 692 308 321 215 586 521 754 868 80 163 152 375 176 514 3 17
10 55 16 85 19 93 25 188 25 365 -1 266 -25 426 -101 668 -47 152 -175 429
-212 459 -10 9 -108 12 -363 13 -192 0 -349 -2 -349 -5 0 -3 15 -21 33 -41 78
-85 207 -265 207 -287 0 -6 3 -12 8 -14 7 -3 62 -114 61 -124 0 -3 6 -15 14
-27 17 -27 74 -189 82 -236 3 -19 8 -37 10 -41 7 -11 20 -89 32 -190 7 -67 7
-310 -1 -365 -32 -211 -78 -361 -169 -544 -17 -36 -35 -70 -39 -76 -4 -5 -33
-48 -64 -95 -31 -46 -67 -96 -79 -110 -12 -14 -42 -47 -66 -74 -24 -27 -62
-66 -84 -85 -21 -20 -47 -43 -56 -53 -32 -30 -166 -128 -176 -128 -6 0 -13 -7
-17 -15 -3 -8 -15 -15 -26 -15 -11 0 -20 -4 -20 -9 0 -5 -15 -14 -32 -22 -18
-7 -35 -16 -38 -19 -3 -3 -21 -13 -40 -22 -19 -9 -51 -23 -70 -32 -43 -19
-234 -82 -275 -91 -16 -3 -41 -8 -55 -10 -14 -2 -36 -7 -50 -10 -113 -23 -411
-23 -520 1 -27 6 -47 9 -100 19 -90 17 -257 78 -365 133 -27 14 -65 32 -82 41
-18 8 -33 19 -33 23 0 4 -5 8 -10 8 -15 0 -155 99 -206 145 -188 170 -294 306
-398 510 -30 58 -55 108 -56 110 -2 10 -9 32 -29 88 -24 67 -48 158 -65 252
-19 104 -26 369 -12 469 10 73 16 106 27 148 5 24 11 50 11 58 0 8 5 21 11 28
5 6 7 12 3 12 -10 0 60 183 106 277 127 256 320 474 570 641 42 29 80 52 83
52 3 0 24 12 48 27 23 14 42 25 42 23 0 -2 20 7 45 20 25 13 46 22 48 21 1 -1
17 5 35 12 17 8 50 19 72 26 22 7 47 15 55 18 8 3 21 7 29 9 7 1 34 8 60 14
91 21 114 25 236 36 33 4 408 7 833 7 l773 1 -33 31 c-91 85 -305 228 -445
299 -165 82 -407 167 -553 192 -14 3 -32 7 -40 9 -8 2 -38 7 -66 10 -28 3 -61
8 -75 11 -25 6 -414 15 -421 10z"/>
<path d="M2425 3642 c-2 -2 -28 -6 -57 -8 -56 -4 -60 -4 -153 -27 -293 -72
-544 -266 -708 -545 -20 -35 -37 -66 -37 -70 0 -4 -7 -20 -16 -37 -22 -42 -71
-220 -80 -291 -28 -216 7 -442 100 -644 19 -42 80 -145 88 -148 5 -2 8 -10 8
-17 0 -7 3 -15 8 -17 4 -1 25 -25 46 -52 68 -84 217 -216 245 -216 6 0 11 -4
11 -9 0 -10 175 -100 230 -118 222 -75 440 -86 665 -34 224 52 476 213 607
386 12 17 25 32 29 35 8 6 106 163 106 170 0 3 11 28 23 55 13 28 25 55 26 60
1 6 9 30 17 55 16 46 36 137 44 200 9 68 4 315 -7 315 -1 0 -3 16 -5 36 -2 20
-11 59 -20 86 -9 28 -18 56 -19 64 -4 18 -13 42 -42 107 -13 29 -23 55 -23 59
1 3 -3 9 -8 12 -4 3 -17 22 -27 41 -36 66 -126 177 -194 242 -94 88 -258 195
-342 223 -3 1 -18 7 -35 14 -54 23 -211 61 -271 67 -76 7 -204 10 -209 6z"/>
</g>
</svg>
