<?xml version="1.0" encoding="utf-8"?>
<!-- Generator: Adobe Illustrator 27.2.0, SVG Export Plug-In . SVG Version: 6.00 Build 0)  -->
<svg version="1.1" id="Layer_1" xmlns="http://www.w3.org/2000/svg" xmlns:xlink="http://www.w3.org/1999/xlink" x="0px" y="0px"
	 viewBox="0 0 40 40" style="enable-background:new 0 0 40 40;" xml:space="preserve">
<style type="text/css">
	.st0{fill:#FFFFFF;}
</style>
<g>
	<g id="_x3C_Radial_Repeat_x3E__00000121266275382591613510000016491183185385103775_">
		<path class="st0" d="M16.7,28.8c1.3,0.1,2.3,0.9,2.8,2.1c0.6,1.2,0.9,2.6,1.4,3.5c0.6,1,1.9,2.2,3.1,2.8c1.3,0.6,2.6,0.8,2.6,0.8
			s-0.7,0.9-2.8,1.6c-2.3,0.8-6,0.7-8.5-1.9c-1.1-1.2-2.1-3.5-1.9-5.4C13.7,30.2,15.2,28.7,16.7,28.8z"/>
	</g>
	<g id="_x3C_Radial_Repeat_x3E__00000081605886623186806280000001607900552004390807_">
		<path class="st0" d="M11.4,23.9c0.8,1,1,2.3,0.6,3.5c-0.4,1.2-1.2,2.5-1.5,3.5c-0.3,1.1-0.3,2.9,0.2,4.2c0.5,1.4,1.3,2.4,1.3,2.4
			s-1.2,0.1-3.1-0.9c-2.2-1.1-4.8-3.7-4.7-7.4c0-1.6,1-4,2.5-5.1C8.3,22.7,10.5,22.7,11.4,23.9z"/>
	</g>
	<g id="_x3C_Radial_Repeat_x3E__00000058561052304159890140000007166450107935729067_">
		<path class="st0" d="M11.2,16.7c-0.1,1.3-0.9,2.3-2.1,2.8c-1.2,0.6-2.6,0.9-3.5,1.4c-1,0.6-2.2,1.9-2.8,3.1
			C2.2,25.4,2,26.6,2,26.6s-0.9-0.7-1.6-2.8c-0.8-2.3-0.7-6,1.9-8.5c1.2-1.1,3.5-2.1,5.4-1.9C9.8,13.7,11.3,15.2,11.2,16.7z"/>
	</g>
	<g id="_x3C_Radial_Repeat_x3E__00000067955717483705549090000004171371704377121691_">
		<path class="st0" d="M16.1,11.4c-1,0.8-2.3,1-3.5,0.6c-1.2-0.4-2.5-1.2-3.5-1.5c-1.1-0.3-2.9-0.3-4.2,0.2C3.6,11.2,2.6,12,2.6,12
			s-0.1-1.2,0.9-3.1c1.1-2.2,3.7-4.8,7.4-4.7c1.6,0,4,1,5.1,2.5C17.3,8.3,17.3,10.5,16.1,11.4z"/>
	</g>
	<g id="_x3C_Radial_Repeat_x3E__00000070823461645084078200000012855971023759000491_">
		<path class="st0" d="M23.3,11.2c-1.3-0.1-2.3-0.9-2.8-2.1c-0.6-1.2-0.9-2.6-1.4-3.5c-0.6-1-1.9-2.2-3.1-2.8
			C14.6,2.2,13.4,2,13.4,2s0.7-0.9,2.8-1.6c2.3-0.8,6-0.7,8.5,1.9c1.1,1.2,2.1,3.5,1.9,5.4C26.3,9.8,24.8,11.3,23.3,11.2z"/>
	</g>
	<g id="_x3C_Radial_Repeat_x3E__00000057113289161501940220000000583236279668355728_">
		<path class="st0" d="M28.6,16.1c-0.8-1-1-2.3-0.6-3.5c0.4-1.2,1.2-2.5,1.5-3.5c0.3-1.1,0.3-2.9-0.2-4.2C28.8,3.6,28,2.6,28,2.6
			s1.2-0.1,3.1,0.9c2.2,1.1,4.8,3.7,4.7,7.4c0,1.6-1,4-2.5,5.1C31.7,17.3,29.5,17.3,28.6,16.1z"/>
	</g>
	<g id="_x3C_Radial_Repeat_x3E__00000145759233433067039080000006691278972370595229_">
		<path class="st0" d="M28.8,23.3c0.1-1.3,0.9-2.3,2.1-2.8c1.2-0.6,2.6-0.9,3.5-1.4c1-0.6,2.2-1.9,2.8-3.1c0.6-1.3,0.8-2.6,0.8-2.6
			s0.9,0.7,1.6,2.8c0.8,2.3,0.7,6-1.9,8.5c-1.2,1.1-3.5,2.1-5.4,1.9C30.2,26.3,28.7,24.8,28.8,23.3z"/>
	</g>
	<g id="_x3C_Radial_Repeat_x3E__00000106860199708077233950000002784276245403913629_">
		<path class="st0" d="M23.9,28.6c1-0.8,2.3-1,3.5-0.6c1.2,0.4,2.5,1.2,3.5,1.5c1.1,0.3,2.9,0.3,4.2-0.2c1.4-0.5,2.4-1.3,2.4-1.3
			s0.1,1.2-0.9,3.1c-1.1,2.2-3.7,4.8-7.4,4.7c-1.6,0-4-1-5.1-2.5C22.7,31.7,22.7,29.5,23.9,28.6z"/>
	</g>
</g>
</svg>
