<?xml version="1.0" encoding="UTF-8"?>
<svg id="Layer_1" data-name="Layer 1" xmlns="http://www.w3.org/2000/svg" viewBox="0 0 270 244.04">
  <defs>
    <style>
      .cls-1 {
        fill: #fff;
      }
    </style>
  </defs>
  <g>
    <g id="_Radial_Repeat_" data-name="&amp;lt;Radial Repeat&amp;gt;">
      <path class="cls-1" d="m124.69,89.54c4.04.36,7.13,2.87,8.85,6.41,1.79,3.67,2.73,8.09,4.29,10.91,1.73,3.15,5.82,6.96,9.73,8.79,4.19,1.96,8,2.49,8,2.49,0,0-2.3,2.8-8.62,4.88-7.23,2.38-18.63,2.3-26.54-5.82-3.55-3.64-6.46-11.02-5.83-16.73.72-6.57,5.55-11.33,10.12-10.92Z"/>
    </g>
    <g id="_Radial_Repeat_-2" data-name="&amp;lt;Radial Repeat&amp;gt;">
      <path class="cls-1" d="m108.36,74.23c2.6,3.11,3.01,7.07,1.73,10.79-1.33,3.86-3.79,7.65-4.69,10.75-1,3.45-.81,9.03.67,13.09,1.58,4.34,3.9,7.42,3.9,7.42,0,0-3.61.35-9.54-2.65-6.8-3.43-14.8-11.54-14.65-22.88.06-5.08,3.23-12.36,7.71-15.96,5.15-4.14,11.93-4.09,14.88-.56Z"/>
    </g>
    <g id="_Radial_Repeat_-3" data-name="&amp;lt;Radial Repeat&amp;gt;">
      <path class="cls-1" d="m107.65,51.87c-.36,4.04-2.87,7.13-6.41,8.85-3.67,1.79-8.09,2.73-10.91,4.29-3.15,1.73-6.96,5.82-8.79,9.73-1.96,4.19-2.49,8-2.49,8,0,0-2.8-2.3-4.88-8.62-2.38-7.23-2.3-18.63,5.82-26.54,3.64-3.55,11.02-6.46,16.73-5.83,6.57.72,11.33,5.55,10.92,10.12Z"/>
    </g>
    <g id="_Radial_Repeat_-4" data-name="&amp;lt;Radial Repeat&amp;gt;">
      <path class="cls-1" d="m122.95,35.55c-3.11,2.6-7.07,3.01-10.79,1.73-3.86-1.33-7.65-3.79-10.75-4.69-3.45-1-9.03-.81-13.09.67-4.34,1.58-7.42,3.9-7.42,3.9,0,0-.35-3.61,2.65-9.54,3.43-6.8,11.54-14.8,22.88-14.65,5.08.06,12.36,3.23,15.96,7.71,4.14,5.15,4.09,11.93.56,14.88Z"/>
    </g>
    <g id="_Radial_Repeat_-5" data-name="&amp;lt;Radial Repeat&amp;gt;">
      <path class="cls-1" d="m145.31,34.83c-4.04-.36-7.13-2.87-8.85-6.41-1.79-3.67-2.73-8.09-4.29-10.91-1.73-3.15-5.82-6.96-9.73-8.79-4.19-1.96-8-2.49-8-2.49,0,0,2.3-2.8,8.62-4.88,7.23-2.38,18.63-2.3,26.54,5.82,3.55,3.64,6.46,11.02,5.83,16.73-.72,6.57-5.55,11.33-10.12,10.92Z"/>
    </g>
    <g id="_Radial_Repeat_-6" data-name="&amp;lt;Radial Repeat&amp;gt;">
      <path class="cls-1" d="m161.64,50.13c-2.6-3.11-3.01-7.07-1.73-10.79,1.33-3.86,3.79-7.65,4.69-10.75,1-3.45.81-9.03-.67-13.09-1.58-4.34-3.9-7.42-3.9-7.42,0,0,3.61-.35,9.54,2.65,6.8,3.43,14.8,11.54,14.65,22.88-.06,5.08-3.23,12.36-7.71,15.96-5.15,4.14-11.93,4.09-14.88.56Z"/>
    </g>
    <g id="_Radial_Repeat_-7" data-name="&amp;lt;Radial Repeat&amp;gt;">
      <path class="cls-1" d="m162.35,72.5c.36-4.04,2.87-7.13,6.41-8.85,3.67-1.79,8.09-2.73,10.91-4.29,3.15-1.73,6.96-5.82,8.79-9.73,1.96-4.19,2.49-8,2.49-8,0,0,2.8,2.3,4.88,8.62,2.38,7.23,2.3,18.63-5.82,26.54-3.64,3.55-11.02,6.46-16.73,5.83-6.57-.72-11.33-5.55-10.92-10.12Z"/>
    </g>
    <g id="_Radial_Repeat_-8" data-name="&amp;lt;Radial Repeat&amp;gt;">
      <path class="cls-1" d="m147.05,88.82c3.11-2.6,7.07-3.01,10.79-1.73,3.86,1.33,7.65,3.79,10.75,4.69,3.45,1,9.03.81,13.09-.67,4.34-1.58,7.42-3.9,7.42-3.9,0,0,.35,3.61-2.65,9.54-3.43,6.8-11.54,14.8-22.88,14.65-5.08-.06-12.36-3.23-15.96-7.71-4.14-5.15-4.09-11.93-.56-14.88Z"/>
    </g>
  </g>
  <g>
    <path class="cls-1" d="m0,175.47c0-13.35,10.73-23.82,24.67-23.82,4.19,0,8.12.92,11.45,2.55l-1.44,9.16c-2.88-1.7-6.41-2.81-9.95-2.81-8.57,0-15.12,6.48-15.12,14.92s6.55,14.86,15.12,14.86c3.6,0,7.13-1.11,10.54-3.21l1.44,9.16c-3.8,1.96-8.05,3.01-12.3,3.01-13.74,0-24.41-10.47-24.41-23.82Z"/>
    <path class="cls-1" d="m83.18,151.97v46.4h-9.29v-18.85h-20.48v18.85h-9.29v-45.29l9.29-1.11v18.65h20.48v-17.54l9.29-1.11Z"/>
    <path class="cls-1" d="m118.58,188.23h-16.23l-4.38,10.14h-10.14l22.64-47.45,22.71,47.45h-10.21l-4.38-10.14Zm-3.4-7.92l-4.71-10.93-4.71,10.93h9.42Z"/>
    <path class="cls-1" d="m135.19,194.45l1.44-8.83c4.25,3.47,8.9,5.5,13.22,5.5s6.41-2.42,6.41-5.37c0-2.42-1.37-4.58-5.82-6.02l-2.81-.92c-8.25-2.68-11.26-7.85-11.26-13.81,0-7.59,5.95-13.35,14.72-13.35,3.99,0,8.31,1.11,12.63,3.34l-1.37,8.64c-4.25-2.55-8.05-3.93-11.39-3.93-3.6,0-5.63,2.16-5.63,4.91,0,2.49,1.37,4.45,6.09,5.96l2.81.92c8.05,2.62,11.19,7.92,11.19,13.74,0,7.4-5.3,14.07-15.45,14.07-6.02,0-11.06-2.29-14.79-4.84Z"/>
    <path class="cls-1" d="m212.22,198.37l-2.23-21.92-13.81,22.84-13.88-22.84-2.23,21.92h-9.29l5.3-48.3,20.09,32.92,20.09-32.92,5.3,48.3h-9.36Z"/>
    <path class="cls-1" d="m255.41,188.23h-16.23l-4.38,10.14h-10.14l22.64-47.45,22.71,47.45h-10.21l-4.38-10.14Zm-3.4-7.92l-4.71-10.93-4.71,10.93h9.42Z"/>
  </g>
  <g>
    <path class="cls-1" d="m69.93,240.78l.7-3.42c1.98,2.02,4.83,3.71,7.88,3.71,3.34,0,5.61-2.19,5.61-5.2,0-2.19-1.28-4.17-4.37-5.16l-1.9-.62c-5.45-1.77-7.06-4.95-7.06-8.33,0-4.29,3.42-7.59,8.13-7.59,2.39,0,5.07.83,7.3,2.31l-.62,3.26c-2.27-1.69-4.46-2.6-6.68-2.6-2.97,0-4.95,1.94-4.95,4.62,0,2.23,1.15,4,4.99,5.24l1.9.62c4.46,1.44,6.48,4.54,6.48,8.21,0,4.74-3.63,8.21-8.83,8.21-3.71,0-6.68-1.65-8.58-3.26Z"/>
    <path class="cls-1" d="m107.64,243.54l-11.22-14.48v14.48h-3.14v-28.59l3.14-.58v13.94l10.89-13.65h4l-11.59,13.99,11.92,14.89h-4Z"/>
    <path class="cls-1" d="m132.61,233.56h-10.97l-4.25,9.98h-3.34l13.08-29.91,13.08,29.91h-3.34l-4.25-9.98Zm-1.24-2.89l-4.25-9.9-4.25,9.9h8.5Z"/>
    <path class="cls-1" d="m149.69,217.64v25.91h-3.14v-25.91h-8.33l.58-2.97h18.65l.58,2.97h-8.33Z"/>
    <path class="cls-1" d="m178.82,240.57l-.58,2.97h-15.64v-28.88h15.06l.58,2.97h-12.5v9.53h10.36v2.97h-10.36v10.44h13.08Z"/>
    <path class="cls-1" d="m182.66,240.78l.7-3.42c1.98,2.02,4.83,3.71,7.88,3.71,3.34,0,5.61-2.19,5.61-5.2,0-2.19-1.28-4.17-4.37-5.16l-1.9-.62c-5.45-1.77-7.06-4.95-7.06-8.33,0-4.29,3.42-7.59,8.13-7.59,2.39,0,5.07.83,7.3,2.31l-.62,3.26c-2.27-1.69-4.46-2.6-6.68-2.6-2.97,0-4.95,1.94-4.95,4.62,0,2.23,1.15,4,4.99,5.24l1.9.62c4.46,1.44,6.48,4.54,6.48,8.21,0,4.74-3.63,8.21-8.83,8.21-3.71,0-6.68-1.65-8.58-3.26Z"/>
  </g>
</svg>