<?xml version="1.0" standalone="no"?>
<!DOCTYPE svg PUBLIC "-//W3C//DTD SVG 20010904//EN"
 "http://www.w3.org/TR/2001/REC-SVG-20010904/DTD/svg10.dtd">
<svg version="1.0" xmlns="http://www.w3.org/2000/svg"
 width="500.000000pt" height="500.000000pt" viewBox="0 0 500.000000 500.000000"
 preserveAspectRatio="xMidYMid meet">
<metadata>
Created by potrace 1.11, written by Peter Selinger 2001-2013
</metadata>
<g transform="translate(0.000000,500.000000) scale(0.100000,-0.100000)"
fill="#000000" stroke="none">
<path d="M2170 4974 c-293 -40 -576 -131 -835 -268 -94 -50 -274 -160 -285
-175 -3 -4 -21 -18 -40 -31 -103 -70 -280 -233 -390 -360 -36 -41 -67 -77 -70
-80 -15 -14 -115 -156 -165 -235 -51 -79 -195 -353 -195 -370 0 -4 -6 -21 -14
-38 -53 -119 -115 -348 -147 -542 -31 -190 -33 -560 -4 -740 6 -38 16 -93 22
-125 2 -14 15 -68 28 -122 202 -799 783 -1446 1562 -1739 94 -36 288 -92 358
-103 17 -3 54 -10 84 -16 107 -20 189 -25 421 -25 207 0 356 8 393 20 7 2 30
7 52 10 114 16 378 93 506 147 117 50 322 159 415 221 201 134 419 328 543
482 31 39 61 76 68 83 21 21 119 164 163 237 168 273 292 629 341 970 17 123
19 471 3 610 -25 219 -98 489 -187 695 -40 93 -51 115 -125 250 -129 237 -362
512 -596 704 -194 160 -473 319 -718 409 -109 40 -320 98 -403 111 -16 2 -43
7 -60 10 -16 3 -46 9 -65 12 -79 14 -554 12 -660 -2z m663 -363 c264 -46 498
-126 691 -236 44 -25 81 -45 83 -45 8 0 173 -118 238 -169 98 -78 258 -240
336 -341 263 -338 418 -726 454 -1140 13 -148 3 -410 -20 -530 -2 -14 -7 -36
-9 -50 -25 -144 -127 -452 -182 -543 -9 -15 -30 1 -166 137 l-156 154 34 99
c56 165 85 338 89 518 11 665 -357 1273 -955 1575 -152 77 -391 151 -541 167
-91 10 -374 11 -449 1 -229 -29 -470 -115 -679 -240 -156 -95 -350 -266 -451
-398 -19 -25 -37 -47 -40 -50 -18 -16 -109 -167 -151 -250 -126 -252 -188
-520 -183 -795 3 -197 28 -348 87 -524 l35 -103 -156 -154 c-85 -85 -156 -154
-157 -154 -7 0 -83 181 -112 265 -76 225 -112 437 -114 670 -1 101 9 283 16
295 2 3 6 29 10 59 4 30 9 63 11 75 3 12 7 32 10 46 44 221 157 492 292 700
106 165 279 363 419 482 145 123 360 255 540 332 74 31 253 94 285 100 7 1 22
5 33 9 11 3 34 9 50 12 141 27 202 36 275 41 47 4 86 8 88 9 13 11 346 -7 445
-24z m-198 -756 c513 -40 993 -421 1160 -918 53 -158 69 -259 69 -437 0 -167
-12 -261 -51 -387 l-16 -52 -71 40 c-94 52 -254 129 -271 129 -16 0 -38 26
-31 38 12 20 27 153 27 237 -4 463 -342 855 -803 930 -473 76 -926 -213 -1063
-680 -41 -139 -46 -393 -9 -490 4 -10 -11 -22 -53 -41 -85 -39 -210 -101 -270
-135 l-51 -30 -15 53 c-19 67 -28 106 -33 138 -2 14 -8 52 -13 85 -10 61 -7
309 3 355 3 14 11 51 17 83 28 159 118 364 224 512 237 332 592 535 1000 573
82 8 128 7 250 -3z m9 -785 c109 -28 190 -74 272 -155 138 -137 200 -323 170
-507 -8 -55 -10 -55 -101 -34 -64 15 -138 27 -195 31 -19 2 -66 6 -105 9 -198
19 -460 3 -670 -40 -93 -19 -93 -19 -100 19 -22 123 -3 246 56 367 123 249
405 379 673 310z m49 -1015 c287 -22 632 -131 867 -274 19 -11 44 -25 55 -30
28 -12 167 -113 245 -177 107 -87 223 -205 313 -317 l39 -48 -42 -54 c-67 -87
-239 -260 -248 -249 -5 5 -35 43 -68 84 -279 356 -714 599 -1159 648 -137 15
-380 7 -505 -18 -30 -6 -68 -13 -83 -15 -68 -13 -273 -87 -368 -135 -242 -121
-438 -281 -601 -491 -60 -77 -62 -79 -82 -62 -42 35 -185 184 -226 237 l-42
55 60 73 c198 241 430 424 717 563 199 97 409 166 580 190 23 3 52 8 65 10 14
3 68 8 120 12 52 3 96 7 98 8 4 4 176 -3 265 -10z m24 -782 c354 -60 658 -245
876 -530 l47 -61 -50 -31 c-64 -39 -266 -138 -301 -146 -23 -6 -37 4 -110 78
-109 109 -201 170 -364 238 -37 15 -140 38 -211 47 -283 33 -567 -66 -774
-270 -30 -30 -64 -66 -74 -80 l-19 -26 -81 35 c-78 33 -182 87 -258 132 l-37
23 41 56 c23 31 87 102 142 157 209 208 461 335 756 380 107 17 314 16 417 -2z
m-98 -767 c83 -18 241 -95 241 -118 0 -3 -17 -8 -37 -11 -184 -29 -487 -28
-658 2 l-40 7 55 35 c70 45 120 66 195 83 56 12 189 13 244 2z"/>
</g>
</svg>
