<?xml version="1.0" encoding="utf-8"?>
<!-- Generator: Adobe Illustrator 24.3.0, SVG Export Plug-In . SVG Version: 6.00 Build 0)  -->
<svg version="1.1"
	 id="svg975" inkscape:version="1.0 (4035a4fb49, 2020-05-01)" sodipodi:docname="sigma-skates-logo-v1.svg" xmlns:cc="http://creativecommons.org/ns#" xmlns:dc="http://purl.org/dc/elements/1.1/" xmlns:inkscape="http://www.inkscape.org/namespaces/inkscape" xmlns:rdf="http://www.w3.org/1999/02/22-rdf-syntax-ns#" xmlns:sodipodi="http://sodipodi.sourceforge.net/DTD/sodipodi-0.dtd" xmlns:svg="http://www.w3.org/2000/svg"
	 xmlns="http://www.w3.org/2000/svg" xmlns:xlink="http://www.w3.org/1999/xlink" x="0px" y="0px" viewBox="0 0 128.9 128.9"
	 style="enable-background:new 0 0 128.9 128.9;" xml:space="preserve">
<style type="text/css">
	.st0{fill:#FFFFFF;}
</style>
<sodipodi:namedview  bordercolor="#666666" borderopacity="1.0" fit-margin-bottom="0" fit-margin-left="0" fit-margin-right="0" fit-margin-top="0" id="base" inkscape:current-layer="g1602" inkscape:cx="104.2225" inkscape:cy="84.648662" inkscape:document-rotation="0" inkscape:document-units="mm" inkscape:pageopacity="0.0" inkscape:pageshadow="2" inkscape:window-height="2066" inkscape:window-maximized="1" inkscape:window-width="3840" inkscape:window-x="-11" inkscape:window-y="-11" inkscape:zoom="1.4" pagecolor="#ffffff" showgrid="false" units="in">
	</sodipodi:namedview>
<path class="st0" d="M115.4,103.8c0.5-0.6,0.9-1.2,1.3-1.8c0.1-0.2,0.2-0.3,0.4-0.5c0.4-0.6,0.8-1.1,1.2-1.7
	c0.1-0.2,0.3-0.4,0.4-0.6c6.5-10,10.3-22,10.3-34.8C128.9,28.9,100,0,64.4,0S0,28.9,0,64.4c0,12.8,3.8,24.8,10.3,34.8
	c0.1,0.2,0.3,0.4,0.4,0.6c0.4,0.6,0.8,1.1,1.2,1.7c0.1,0.2,0.2,0.3,0.3,0.5c0.4,0.6,0.9,1.2,1.3,1.8c0,0.1,0.1,0.1,0.1,0.2
	c11.8,15.1,30.2,24.9,50.8,24.9c20.6,0,39-9.8,50.8-24.9C115.3,103.9,115.3,103.9,115.4,103.8z M64.4,9.2
	c30.5,0,55.2,24.8,55.2,55.2c0,8.9-2.1,17.4-5.9,24.9c-2.5-2.9-5.2-5.6-8.1-8.1c2.1-5.2,3.3-10.9,3.3-16.8c0-24.5-20-44.5-44.5-44.5
	s-44.5,20-44.5,44.5c0,5.9,1.2,11.6,3.3,16.8c-2.9,2.4-5.6,5.1-8.1,8.1c-3.8-7.5-5.9-15.9-5.9-24.9C9.2,34,34,9.2,64.4,9.2z
	 M101.1,105.6c-8-11.7-21.5-19.4-36.7-19.4c-15.2,0-28.7,7.7-36.7,19.4c-2.7-2.4-5.2-5.1-7.4-8.1c10.1-13.4,26.1-22.1,44.1-22.1
	s34,8.7,44.1,22.1C106.4,100.5,103.9,103.2,101.1,105.6z M64.4,106.2c-8,0-15.1,3.9-19.6,9.8c-3.4-1.3-6.6-2.9-9.7-4.8
	c6.3-9.5,17.1-15.7,29.3-15.7s23,6.3,29.3,15.7c-3.1,1.9-6.3,3.6-9.8,4.9C79.5,110.1,72.4,106.2,64.4,106.2z M29.1,64.4
	C29.1,45,45,29.1,64.4,29.1S99.7,45,99.7,64.4c0,3.9-0.7,7.7-1.9,11.3c-3.1-1.9-6.3-3.5-9.7-4.9c0.6-2,0.9-4.2,0.9-6.4
	c0-13.5-11-24.5-24.5-24.5s-24.5,11-24.5,24.5c0,2.2,0.3,4.4,0.9,6.4c-3.4,1.3-6.7,3-9.7,4.9C29.8,72.1,29.1,68.4,29.1,64.4z
	 M49.5,68c-0.3-1.2-0.4-2.4-0.4-3.6c0-8.5,6.9-15.3,15.3-15.3S79.8,56,79.8,64.4c0,1.2-0.2,2.4-0.4,3.6c-4.8-1.1-9.8-1.7-14.9-1.7
	C59.3,66.3,54.3,66.9,49.5,68z M54.8,118.8c2.6-2.1,6-3.4,9.6-3.4c3.6,0,7,1.3,9.6,3.4c-3.1,0.5-6.3,0.8-9.6,0.8
	C61.1,119.7,57.9,119.4,54.8,118.8z"/>
</svg>
