<?xml version="1.0" encoding="utf-8"?>
<!-- Generator: Adobe Illustrator 24.3.0, SVG Export Plug-In . SVG Version: 6.00 Build 0)  -->
<svg version="1.1"
	 id="svg975" inkscape:version="1.0 (4035a4fb49, 2020-05-01)" sodipodi:docname="sigma-skates-logo-v1.svg" xmlns:cc="http://creativecommons.org/ns#" xmlns:dc="http://purl.org/dc/elements/1.1/" xmlns:inkscape="http://www.inkscape.org/namespaces/inkscape" xmlns:rdf="http://www.w3.org/1999/02/22-rdf-syntax-ns#" xmlns:sodipodi="http://sodipodi.sourceforge.net/DTD/sodipodi-0.dtd" xmlns:svg="http://www.w3.org/2000/svg"
	 xmlns="http://www.w3.org/2000/svg" xmlns:xlink="http://www.w3.org/1999/xlink" x="0px" y="0px" viewBox="0 0 192.8 263.7"
	 style="enable-background:new 0 0 192.8 263.7;" xml:space="preserve">
<style type="text/css">
	.st0{fill:#FFFFFF;}
</style>
<sodipodi:namedview  bordercolor="#666666" borderopacity="1.0" fit-margin-bottom="0" fit-margin-left="0" fit-margin-right="0" fit-margin-top="0" id="base" inkscape:current-layer="layer1" inkscape:cx="175.98407" inkscape:cy="174.54933" inkscape:document-rotation="0" inkscape:document-units="mm" inkscape:pageopacity="0.0" inkscape:pageshadow="2" inkscape:window-height="2066" inkscape:window-maximized="1" inkscape:window-width="3840" inkscape:window-x="-11" inkscape:window-y="-11" inkscape:zoom="1.4" pagecolor="#ffffff" showgrid="false" units="in">
	</sodipodi:namedview>
<g>
	<path class="st0" d="M152.5,114.4c0.5-0.6,1-1.3,1.5-2c0.1-0.2,0.3-0.4,0.4-0.5c0.4-0.6,0.9-1.2,1.3-1.8c0.2-0.2,0.3-0.5,0.4-0.7
		c7.1-11.1,11.3-24.2,11.3-38.4c0-39.1-31.9-71-71-71s-71,31.9-71,71c0,14.1,4.2,27.3,11.3,38.4c0.1,0.2,0.3,0.4,0.4,0.7
		c0.4,0.6,0.8,1.2,1.3,1.9c0.1,0.2,0.3,0.4,0.4,0.5c0.5,0.7,1,1.3,1.5,2c0,0.1,0.1,0.1,0.1,0.2c13,16.7,33.3,27.4,56,27.4
		c22.7,0,43-10.7,56-27.4C152.4,114.5,152.5,114.5,152.5,114.4z M96.4,10.1c33.6,0,60.9,27.3,60.9,60.9c0,9.9-2.4,19.2-6.5,27.4
		c-2.7-3.2-5.7-6.2-8.9-8.9c2.3-5.7,3.6-12,3.6-18.5c0-27-22-49-49-49s-49,22-49,49c0,6.6,1.3,12.8,3.6,18.5
		c-3.2,2.7-6.2,5.7-8.9,8.9c-4.2-8.2-6.5-17.5-6.5-27.4C35.5,37.4,62.8,10.1,96.4,10.1z M136.8,116.4C128,103.5,113.2,95,96.4,95
		c-16.8,0-31.6,8.5-40.4,21.4c-3-2.7-5.8-5.7-8.2-8.9c11.1-14.8,28.8-24.3,48.6-24.3s37.5,9.6,48.6,24.3
		C142.6,110.8,139.8,113.7,136.8,116.4z M96.3,117c-8.8,0-16.7,4.3-21.6,10.8c-3.7-1.4-7.3-3.2-10.7-5.3c7-10.4,18.9-17.3,32.3-17.3
		s25.4,6.9,32.3,17.3c-3.4,2.1-7,3.9-10.7,5.4C113,121.3,105.2,117,96.3,117z M57.5,71c0-21.4,17.4-38.9,38.9-38.9
		s38.9,17.4,38.9,38.9c0,4.3-0.7,8.5-2,12.4c-3.4-2.1-7-3.9-10.7-5.4c0.6-2.2,0.9-4.6,0.9-7c0-14.9-12.1-27-27-27s-27,12.1-27,27
		c0,2.4,0.3,4.8,0.9,7c-3.7,1.5-7.3,3.3-10.7,5.4C58.2,79.5,57.5,75.3,57.5,71z M80,75c-0.3-1.3-0.5-2.6-0.5-4
		c0-9.3,7.6-16.9,16.9-16.9s16.9,7.6,16.9,16.9c0,1.4-0.2,2.7-0.5,4c-5.3-1.3-10.8-1.9-16.4-1.9C90.7,73.1,85.2,73.7,80,75z
		 M85.8,130.9c2.9-2.3,6.6-3.7,10.6-3.7c4,0,7.7,1.4,10.6,3.8c-3.4,0.6-7,0.9-10.6,0.9C92.8,131.9,89.2,131.5,85.8,130.9z"/>
	<g>
		<path class="st0" d="M0,240.5V233c0-0.4,0.1-0.8,0.3-1.3l25.8-58.3c0.1-0.1,0.1-0.3,0-0.4c-0.1-0.1-0.2-0.2-0.3-0.2H1.1
			c-0.7,0-1.1-0.4-1.1-1.1v-7c0-0.7,0.4-1.1,1.1-1.1h35.5c0.7,0,1.1,0.4,1.1,1.1v7.5c0,0.3-0.1,0.7-0.3,1.3l-26,58.3
			c-0.1,0.1-0.1,0.3,0,0.4c0.1,0.1,0.2,0.2,0.3,0.2h24.8c0.7,0,1.1,0.4,1.1,1.1v7c0,0.7-0.4,1.1-1.1,1.1H1.1
			C0.4,241.6,0,241.2,0,240.5z"/>
		<path class="st0" d="M51.6,236.9c-3.7-3.7-5.6-8.7-5.6-14.8v-38.9c0-6.2,1.9-11.1,5.6-14.9c3.7-3.7,8.6-5.6,14.7-5.6
			c6.2,0,11.1,1.9,14.9,5.6c3.7,3.8,5.6,8.7,5.6,14.9v38.9c0,6.2-1.9,11.1-5.6,14.8c-3.8,3.7-8.7,5.6-14.9,5.6
			C60.2,242.5,55.3,240.7,51.6,236.9z M73.5,230.3c1.8-2,2.7-4.5,2.7-7.7v-39.9c0-3.2-0.9-5.8-2.7-7.7c-1.8-2-4.2-3-7.1-3
			c-2.9,0-5.2,1-7,3c-1.7,2-2.6,4.5-2.6,7.7v39.9c0,3.2,0.9,5.8,2.6,7.7c1.7,2,4.1,3,7,3C69.3,233.3,71.7,232.3,73.5,230.3z"/>
		<path class="st0" d="M127.6,240.7l-10.2-33.2c-0.1-0.2-0.2-0.3-0.4-0.3h-7.8c-0.3,0-0.4,0.1-0.4,0.4v32.9c0,0.7-0.4,1.1-1.1,1.1
			H99c-0.7,0-1.1-0.4-1.1-1.1v-75.7c0-0.7,0.4-1.1,1.1-1.1H119c3.8,0,7.1,0.9,10,2.8c2.9,1.9,5.1,4.5,6.7,7.9
			c1.6,3.4,2.4,7.2,2.4,11.5c0,4.7-1,8.7-2.9,12.2c-1.9,3.5-4.6,6-7.9,7.5c-0.2,0.2-0.3,0.4-0.2,0.7l11.4,34.2l0.1,0.4
			c0,0.5-0.3,0.8-1,0.8h-8.7C128.2,241.6,127.8,241.3,127.6,240.7z M108.6,173.3v25c0,0.3,0.1,0.4,0.4,0.4h8.2c3,0,5.5-1.2,7.4-3.5
			c1.9-2.3,2.8-5.4,2.8-9.3c0-4-0.9-7.2-2.8-9.5c-1.9-2.3-4.3-3.5-7.4-3.5h-8.2C108.8,172.9,108.6,173,108.6,173.3z"/>
		<path class="st0" d="M181.9,240.6l-2.4-12.8c0-0.1-0.1-0.3-0.2-0.3c-0.1-0.1-0.2-0.1-0.4-0.1h-18.2c-0.1,0-0.3,0-0.4,0.1
			c-0.1,0.1-0.2,0.2-0.2,0.3l-2.3,12.8c-0.1,0.7-0.5,1-1.2,1h-8.5c-0.4,0-0.7-0.1-0.8-0.3c-0.2-0.2-0.2-0.5-0.2-0.9l16.6-75.7
			c0.1-0.7,0.6-1,1.2-1h9.9c0.7,0,1.2,0.3,1.2,1l16.7,75.7v0.2c0,0.7-0.3,1-1,1h-8.7C182.4,241.6,182,241.3,181.9,240.6z
			 M162.4,218.9h14.8c0.2,0,0.3-0.1,0.3-0.4l-7.6-39.5c-0.1-0.1-0.1-0.2-0.2-0.2c-0.1,0-0.1,0.1-0.2,0.2l-7.5,39.5
			C162,218.7,162.1,218.9,162.4,218.9z"/>
		<path class="st0" d="M1.2,262.6c-0.7-0.8-1.1-1.7-1.1-3V259c0-0.2,0.1-0.2,0.2-0.2H2c0.2,0,0.2,0.1,0.2,0.2v0.5
			c0,0.7,0.2,1.3,0.5,1.7c0.4,0.4,0.8,0.6,1.4,0.6s1-0.2,1.4-0.6c0.4-0.4,0.5-0.9,0.5-1.6c0-0.4-0.1-0.8-0.3-1.2
			c-0.2-0.3-0.4-0.6-0.8-0.9c-0.3-0.3-0.8-0.7-1.5-1.2c-0.8-0.6-1.4-1.1-1.8-1.5c-0.4-0.4-0.8-0.9-1.1-1.5c-0.3-0.6-0.5-1.3-0.5-2
			c0-1.2,0.4-2.2,1.1-2.9c0.7-0.7,1.7-1.1,2.9-1.1c1.2,0,2.2,0.4,2.9,1.2c0.7,0.8,1.1,1.8,1.1,3.1v0.6c0,0.2-0.1,0.2-0.2,0.2H6.1
			c-0.2,0-0.2-0.1-0.2-0.2v-0.6c0-0.7-0.2-1.2-0.5-1.7c-0.4-0.4-0.8-0.6-1.4-0.6c-0.5,0-1,0.2-1.3,0.6c-0.3,0.4-0.5,0.9-0.5,1.6
			c0,0.6,0.2,1.1,0.5,1.5c0.3,0.4,1,1,1.9,1.7c0.9,0.7,1.6,1.2,2.1,1.7c0.5,0.4,0.8,0.9,1.1,1.4c0.3,0.5,0.4,1.1,0.4,1.8
			c0,1.3-0.4,2.3-1.1,3.1c-0.7,0.8-1.7,1.2-2.9,1.2S1.9,263.3,1.2,262.6z"/>
		<path class="st0" d="M36.6,263.3v-15.6c0-0.2,0.1-0.2,0.2-0.2h1.7c0.2,0,0.2,0.1,0.2,0.2v6.9c0,0,0,0.1,0,0.1c0,0,0.1,0,0.1-0.1
			l3.9-7c0.1-0.1,0.2-0.2,0.3-0.2h1.9c0.1,0,0.2,0,0.2,0.1c0,0.1,0,0.1,0,0.2l-3.5,6.4c0,0,0,0.1,0,0.1l3.8,9l0,0.1
			c0,0.1-0.1,0.2-0.2,0.2h-1.9c-0.1,0-0.2-0.1-0.3-0.2l-3-7.2c0-0.1-0.1-0.1-0.1,0l-1.2,1.9c0,0,0,0.1,0,0.1v5.2
			c0,0.2-0.1,0.2-0.2,0.2h-1.7C36.6,263.5,36.6,263.5,36.6,263.3z"/>
		<path class="st0" d="M80.4,263.3l-0.5-2.6c0,0,0-0.1,0-0.1c0,0,0,0-0.1,0H76c0,0-0.1,0-0.1,0c0,0,0,0,0,0.1l-0.5,2.6
			c0,0.1-0.1,0.2-0.3,0.2h-1.7c-0.1,0-0.1,0-0.2-0.1c0,0,0-0.1,0-0.2l3.4-15.6c0-0.1,0.1-0.2,0.3-0.2h2c0.2,0,0.2,0.1,0.3,0.2
			l3.4,15.6v0c0,0.1-0.1,0.2-0.2,0.2h-1.8C80.5,263.5,80.4,263.5,80.4,263.3z M76.4,258.9h3.1c0,0,0.1,0,0.1-0.1l-1.6-8.1
			c0,0,0,0,0,0s0,0,0,0L76.4,258.9C76.3,258.8,76.3,258.9,76.4,258.9z"/>
		<path class="st0" d="M119.2,247.7v1.4c0,0.2-0.1,0.2-0.2,0.2h-3c-0.1,0-0.1,0-0.1,0.1v13.8c0,0.2-0.1,0.2-0.2,0.2h-1.7
			c-0.2,0-0.2-0.1-0.2-0.2v-13.8c0-0.1,0-0.1-0.1-0.1h-2.8c-0.2,0-0.2-0.1-0.2-0.2v-1.4c0-0.2,0.1-0.2,0.2-0.2h8.2
			C119.1,247.5,119.2,247.6,119.2,247.7z"/>
		<path class="st0" d="M155.4,249.4h-5.2c-0.1,0-0.1,0-0.1,0.1v5c0,0.1,0,0.1,0.1,0.1h3.2c0.2,0,0.2,0.1,0.2,0.2v1.4
			c0,0.2-0.1,0.2-0.2,0.2h-3.2c-0.1,0-0.1,0-0.1,0.1v5c0,0.1,0,0.1,0.1,0.1h5.2c0.2,0,0.2,0.1,0.2,0.2v1.4c0,0.2-0.1,0.2-0.2,0.2
			h-7.2c-0.2,0-0.2-0.1-0.2-0.2v-15.6c0-0.2,0.1-0.2,0.2-0.2h7.2c0.2,0,0.2,0.1,0.2,0.2v1.4C155.6,249.3,155.5,249.4,155.4,249.4z"
			/>
		<path class="st0" d="M185.8,262.6c-0.7-0.8-1.1-1.7-1.1-3V259c0-0.2,0.1-0.2,0.2-0.2h1.7c0.2,0,0.2,0.1,0.2,0.2v0.5
			c0,0.7,0.2,1.3,0.5,1.7c0.4,0.4,0.8,0.6,1.4,0.6c0.6,0,1-0.2,1.4-0.6c0.4-0.4,0.5-0.9,0.5-1.6c0-0.4-0.1-0.8-0.3-1.2
			c-0.2-0.3-0.4-0.6-0.8-0.9c-0.3-0.3-0.8-0.7-1.5-1.2c-0.8-0.6-1.4-1.1-1.8-1.5c-0.4-0.4-0.8-0.9-1.1-1.5c-0.3-0.6-0.5-1.3-0.5-2
			c0-1.2,0.4-2.2,1.1-2.9c0.7-0.7,1.7-1.1,2.9-1.1c1.2,0,2.2,0.4,2.9,1.2c0.7,0.8,1.1,1.8,1.1,3.1v0.6c0,0.2-0.1,0.2-0.2,0.2h-1.7
			c-0.2,0-0.2-0.1-0.2-0.2v-0.6c0-0.7-0.2-1.2-0.5-1.7c-0.4-0.4-0.8-0.6-1.4-0.6c-0.5,0-1,0.2-1.3,0.6c-0.3,0.4-0.5,0.9-0.5,1.6
			c0,0.6,0.2,1.1,0.5,1.5c0.3,0.4,1,1,1.9,1.7c0.9,0.7,1.6,1.2,2.1,1.7c0.5,0.4,0.8,0.9,1.1,1.4c0.3,0.5,0.4,1.1,0.4,1.8
			c0,1.3-0.4,2.3-1.1,3.1c-0.7,0.8-1.7,1.2-2.9,1.2C187.5,263.7,186.5,263.3,185.8,262.6z"/>
	</g>
</g>
</svg>
